<svg width="38" height="36" viewBox="0 0 38 36" fill="none" xmlns="http://www.w3.org/2000/svg">
<g clip-path="url(#clip0_707_162)">
<path d="M19.3475 0H17.7558C7.94956 0 0 7.91955 0 17.6888C0 27.4581 7.94956 35.3776 17.7558 35.3776H19.3475C29.1538 35.3776 37.1034 27.4581 37.1034 17.6888C37.1034 7.91955 29.1538 0 19.3475 0Z" fill="#FFDC31"/>
<path d="M7.99756 9.62249C9.15307 9.44262 10.8026 9.28577 13.2681 9.28577C15.543 9.28577 17.1506 9.75632 18.1993 10.5593C19.219 11.3147 19.9527 12.6199 19.9527 14.2143C19.9527 15.6835 19.4645 17.0175 18.4997 17.8737C17.22 19.0349 15.3553 19.5746 13.0298 19.5746C12.478 19.5746 11.9898 19.5328 11.636 19.471V24.9593H7.99756V9.62105V9.62249ZM11.636 16.6635C11.9725 16.7441 12.4015 16.7772 13.024 16.7772C15.0043 16.7772 16.3143 15.8792 16.3143 14.2647C16.3143 12.8084 15.1935 12.0328 13.2985 12.0328C12.4679 12.0328 11.9147 12.0932 11.636 12.1494V16.6649V16.6635Z" fill="#001B2B"/>
<path d="M21.7438 21.7906C22.4486 22.2237 23.9667 22.7116 25.0731 22.7116C26.1795 22.7116 26.6807 22.3518 26.6807 21.8035C26.6807 21.2222 26.3138 20.9632 24.9113 20.5732C22.3966 19.8911 21.3697 18.5816 21.387 17.1585C21.387 15.0086 23.2864 13.4027 26.2647 13.4027C27.712 13.4027 29.0206 13.738 29.7384 14.1049L29.1015 16.5901C28.5685 16.3181 27.4346 15.8936 26.3658 15.8936C25.4804 15.8936 24.946 16.1972 24.946 16.7843C24.946 17.3384 25.4544 17.6233 26.9464 18.0492C29.2473 18.704 30.2382 19.7803 30.257 21.5488C30.257 23.5836 28.619 25.2384 25.0875 25.2384C23.438 25.2384 22.0456 24.8801 21.0707 24.3952L21.7409 21.7906H21.7438Z" fill="#001B2B"/>
<g clip-path="url(#clip1_707_162)">
<path d="M18.5524 0H18.551C8.78209 0 0.862854 7.87016 0.862854 17.5785V17.7991C0.862854 27.5075 8.78209 35.3776 18.551 35.3776H18.5524C28.3213 35.3776 36.2405 27.5075 36.2405 17.7991V17.5785C36.2405 7.87016 28.3213 0 18.5524 0Z" fill="#FFDC31"/>
<g clip-path="url(#clip2_707_162)">
<path d="M22.2808 16.6401H18.2284V8.89026H22.2808C24.4979 8.89026 26.3017 10.6286 26.3017 12.7654C26.3017 14.9021 24.4979 16.6404 22.2808 16.6404V16.6401ZM19.3746 15.5357H22.2808C23.8661 15.5357 25.1554 14.2928 25.1554 12.7654C25.1554 11.2379 23.8657 9.99498 22.2808 9.99498H19.3746V15.5361V15.5357Z" fill="#001B2B"/>
<path d="M19.3746 16.6401H15.3226C13.1055 16.6401 11.3017 14.9021 11.3017 12.7654C11.3017 10.6286 13.1055 8.89026 15.3226 8.89026H19.3746V16.6401ZM15.3226 9.9946C13.7373 9.9946 12.448 11.2376 12.448 12.765C12.448 14.2924 13.7377 15.5353 15.3226 15.5353H18.2288V9.9946H15.3226Z" fill="#001B2B"/>
<path d="M19.3746 23.2871H15.351C13.1339 23.2871 11.3301 21.5487 11.3301 19.412C11.3301 17.2753 13.1339 15.5369 15.351 15.5369H19.3746V23.2871ZM15.351 16.6412C13.7657 16.6412 12.4764 17.8842 12.4764 19.4116C12.4764 20.939 13.7661 22.1823 15.351 22.1823H18.2284V16.6412H15.351Z" fill="#001B2B"/>
<path d="M15.4783 29.8902C14.1885 29.8902 13.1636 29.5254 12.431 28.8061C11.3392 27.7334 11.329 26.2619 11.3302 26.1317C11.3321 23.9965 13.1351 22.26 15.351 22.26H19.3747V26.3107C19.3747 26.8267 19.1474 27.7086 18.5065 28.4965C17.9893 29.1321 17.0442 29.8902 15.4783 29.8902ZM12.4764 26.1446C12.4764 26.1915 12.4867 27.2905 13.2568 28.0399C13.7654 28.535 14.5129 28.7859 15.4787 28.7859C17.5519 28.7859 18.2288 26.9455 18.2288 26.311V23.3647H15.3514C13.7661 23.3647 12.4768 24.6077 12.4768 26.1351V26.1446H12.4764Z" fill="#001B2B"/>
<path d="M22.265 23.287C20.0637 23.287 18.273 21.5612 18.273 19.4397C18.273 17.3182 20.0637 15.5924 22.265 15.5924C24.4663 15.5924 26.257 17.3182 26.257 19.4397C26.257 21.5612 24.4663 23.287 22.265 23.287ZM22.265 16.6967C20.696 16.6967 19.4193 17.9271 19.4193 19.4397C19.4193 20.9523 20.696 22.1823 22.265 22.1823C23.8341 22.1823 25.1108 20.9519 25.1108 19.4397C25.1108 17.9275 23.8341 16.6967 22.265 16.6967Z" fill="#001B2B"/>
</g>
</g>
</g>
<defs>
<clipPath id="clip0_707_162">
<rect width="37.1034" height="35.3776" fill="white"/>
</clipPath>
<clipPath id="clip1_707_162">
<rect width="35.3776" height="35.3776" fill="white" transform="translate(0.862854)"/>
</clipPath>
<clipPath id="clip2_707_162">
<rect width="15" height="21" fill="white" transform="translate(11.3017 8.89026)"/>
</clipPath>
</defs>
</svg>
